<mxfile host="app.diagrams.net" agent="Mozilla/5.0 (Macintosh; Intel Mac OS X 10_15_7) AppleWebKit/605.1.15 (KHTML, like Gecko) Version/17.6 Safari/605.1.15" version="24.7.16">
  <diagram name="Page-1" id="3K3B4DxhF9rhRpnuaBvn">
    <mxGraphModel dx="954" dy="647" grid="1" gridSize="10" guides="1" tooltips="1" connect="1" arrows="1" fold="1" page="1" pageScale="1" pageWidth="850" pageHeight="1100" math="0" shadow="0">
      <root>
        <mxCell id="0" />
        <mxCell id="1" parent="0" />
        <mxCell id="5VB_7IG8Qx54lOpx50xR-3" value="USERS" style="swimlane;whiteSpace=wrap;html=1;" vertex="1" parent="1">
          <mxGeometry x="120" y="200" width="200" height="110" as="geometry" />
        </mxCell>
        <mxCell id="5VB_7IG8Qx54lOpx50xR-6" value="active INTEGER" style="rounded=0;whiteSpace=wrap;html=1;" vertex="1" parent="5VB_7IG8Qx54lOpx50xR-3">
          <mxGeometry y="50" width="200" height="30" as="geometry" />
        </mxCell>
        <mxCell id="5VB_7IG8Qx54lOpx50xR-7" value="role VARCHAR(20)" style="rounded=0;whiteSpace=wrap;html=1;" vertex="1" parent="5VB_7IG8Qx54lOpx50xR-3">
          <mxGeometry y="80" width="200" height="30" as="geometry" />
        </mxCell>
        <mxCell id="5VB_7IG8Qx54lOpx50xR-10" style="edgeStyle=orthogonalEdgeStyle;rounded=0;orthogonalLoop=1;jettySize=auto;html=1;exitX=0;exitY=0.5;exitDx=0;exitDy=0;entryX=1;entryY=0.5;entryDx=0;entryDy=0;fillColor=#dae8fc;strokeColor=#6c8ebf;" edge="1" parent="1" source="5VB_7IG8Qx54lOpx50xR-4" target="5VB_7IG8Qx54lOpx50xR-5">
          <mxGeometry relative="1" as="geometry" />
        </mxCell>
        <mxCell id="5VB_7IG8Qx54lOpx50xR-4" value="RECORDS" style="swimlane;whiteSpace=wrap;html=1;" vertex="1" parent="1">
          <mxGeometry x="530" y="200" width="200" height="60" as="geometry" />
        </mxCell>
        <mxCell id="5VB_7IG8Qx54lOpx50xR-8" value="&lt;u&gt;user_id&lt;/u&gt; INTEGER" style="rounded=0;whiteSpace=wrap;html=1;" vertex="1" parent="5VB_7IG8Qx54lOpx50xR-4">
          <mxGeometry y="20" width="200" height="20" as="geometry" />
        </mxCell>
        <mxCell id="5VB_7IG8Qx54lOpx50xR-9" value="&lt;u&gt;timestamp&lt;/u&gt; DATETIME" style="rounded=0;whiteSpace=wrap;html=1;" vertex="1" parent="5VB_7IG8Qx54lOpx50xR-4">
          <mxGeometry y="40" width="200" height="20" as="geometry" />
        </mxCell>
        <mxCell id="5VB_7IG8Qx54lOpx50xR-5" value="&lt;u&gt;user_id&lt;/u&gt; INTEGER" style="whiteSpace=wrap;html=1;" vertex="1" parent="1">
          <mxGeometry x="120" y="220" width="200" height="30" as="geometry" />
        </mxCell>
      </root>
    </mxGraphModel>
  </diagram>
</mxfile>
